<?xml version="1.0" encoding="UTF-8"?>
<svg viewBox="0 0 480.84375 109.80512" xmlns="http://www.w3.org/2000/svg">
 <defs>
  <linearGradient id="a" x1="476.79" x2="25.254" y1="99.788" y2="56.555" gradientUnits="userSpaceOnUse">
   <stop offset="0"/>
   <stop stop-opacity="0" offset="1"/>
  </linearGradient>
 </defs>
 <g transform="translate(-.80068 -1.6525)">
  <path d="m295.58213,1.65258-1.75.9375-8.9375,4.9375 .0313.0625c-.4598.14997-.92299.37046-1.15625.75-.29491.47986-.40264,1.00529-.4375,1.5625-.005.0796.002.16876 0,.25-5.8189.26323-11.61905.7889-17.375,1.5625-.10092-.30578-.21642-.59486-.3125-.90625-.47545-1.54091-.86776-3.11067-1-4.34375-.0661-.61654-.0408-1.13257.0313-1.5s.1663-.52726.28125-.59375l-.0313-.03125c.10567-.0906.20089-.16372.3125-.25 .32949-.25242.663-.48852 1-.65625 .17448-.0861.34602-.14842.5-.1875 .13982-.0326.25687-.04845.34375-.03125 .0789.008.16102.03738.21875.09375 .0932.0771.16309.22148.21875.40625 .0632.28341.18561.58312.40625.84375 .12135.13862.25806.26714.4375.34375 .0913.013.18821.0036.28125,0 .59207-.0599.99805-.37119 1.3125-.6875 .3153-.31589.5679-.65323.78125-1 .10125-.17537.18651-.36156.28125-.53125l-.40625.375c-.28758.23039-.5842.44869-.875.59375-.29986.12696-.55646.24637-.6875.1875-.06-.006-.13282-.06892-.1875-.125-.0895-.0843-.13282-.24883-.1875-.4375-.0245-.11394-.0457-.22986-.0937-.34375h-.0313c-.0807-.17771-.16306-.34393-.3125-.5-.20234-.19982-.48292-.33093-.78125-.375-.29006-.0356-.55996.02025-.8125.09375-.27168.0765-.51985.15938-.75.28125-.44128.2325-.84991.51482-1.21875.8125-.12708.10199-.2524.20358-.375.3125-.37708.28672-.59365.70801-.6875,1.1875-.10542.53861-.10417,1.16338-.0313,1.84375 .14593,1.36075.57628,2.98671 1.0625,4.5625 .077.24965.17029.47309.25.71875-5.913.82496-11.77456,1.92248-17.5625,3.1875 .0301-.04173.064-.08357.0937-.125l-.1875.125c-.79366.17377-1.5843.35024-2.375.53125l-.28125.0625c-.002-.01131.001-.01974 0-.03125-.007-.13131-.0282-.275-.0625-.40625-.0601-.2048-.13783-.41389-.28125-.59375-.19629-.2303-.47682-.38671-.8125-.4375-.32772-.041-.66413.0084-.96875.09375-.32724.0882-.64976.2033-.9375.34375-.55149.26795-1.05122.59443-1.53125.9375l-.34375.25-.0313-.0625c-.52852.27979-.87477.7738-1.09375,1.34375-10.37516,2.57938-20.52387,5.64745-30.53125,8.90625l-.375-1.09375-2.375.8125 .34375,1.0625c-6.23585,2.05418-12.40198,4.16191-18.53125,6.28125-.0655-.99982-.10684-1.94365-.0625-2.78125 .0463-.87387.15329-1.62111.34375-2.15625s.42661-.81593.65625-.9375l-.0625-.09375c.14209-.10529.29041-.21132.4375-.3125 .52468-.35802 1.04643-.66835 1.5625-.90625 .26703-.12207.52273-.22582.75-.28125 .20573-.0462.38066-.0867.5-.0625 .11011.0114.21219.07628.28125.15625 .11462.10935.15053.33169.1875.59375 .0253.40198.15252.81784.40625,1.1875 .14062.19661.3254.36009.5625.46875 .12652.0184.27348.005.40625,0 .85336-.085 1.48215-.52013 2-.96875s.93112-.91443 1.3125-1.40625c.18345-.24874.35833-.50932.53125-.75l-.65625.53125c-.46022.32678-.92959.60676-1.375.8125-.45414.18007-.82751.33349-1,.25-.0837-.009-.18518-.04546-.25-.125-.10776-.11963-.15283-.35741-.1875-.625-.009-.16161-.0202-.33847-.0625-.5-.074-.25205-.19851-.49739-.375-.71875-.24158-.28342-.58688-.43748-1-.5-.40332-.0504-.81261-.01027-1.1875.09375-.40273.10852-.77088.26466-1.125.4375-.67871.32977-1.31548.70278-1.90625,1.125-.14961.10639-.29036.23208-.4375.34375l-.0313-.09375c-.68592.36312-1.10809,1.03132-1.375,1.78125s-.38638,1.59691-.4375,2.5625c-.0554,1.04619-.003,2.20375.0937,3.40625l-8.34375,2.875c-4.28278,1.46274-8.55467,2.9065-12.8125,4.3125l.21875-.875-1.21875-.4375-14.46875-5-.3125-.09375-.3125.03125c-1.00684.11003-1.92142.74237-2.40625,1.53125s-.66145,1.64647-.71875,2.5625c-.1146,1.83207.25035,3.92789.75,6 .15649.64898.35269,1.27865.53125,1.90625-11.35583,3.3322-22.65321,6.1206-33.9375,7.875-33.94305,5.39267-69.06648,2.13394-100.90625-9.125l-1.1875,3.8125c32.5611,11.18415 68.28399,14.17258 102.6875,8.40625 2.2227-.36668 4.43634-.77862 6.65625-1.21875-.38517.43186-.66815.95007-.875,1.53125-.2049.57572-.34448,1.2238-.4375,1.90625-1.57883.31204-3.16767.63057-4.75.90625-34.8837,6.14329-71.20253,3.40639-104.5-7.71875l-1.1875,3.8125c34.01852,11.05042 70.96827,13.5168 106.3125,7 1.3295-.24361 2.64309-.51277 3.96875-.78125 .0209,1.01823.11085,2.07006.21875,3.15625-1.19683.25023-2.39273.48813-3.59375.71875-35.82433,6.8939-73.36982,4.71009-108.125-6.28125l-1.1875,3.8125c35.48404,10.92444 73.61159,12.83171 109.90625,5.5625 1.12543-.22574 2.25413-.44514 3.375-.6875 .156,1.04857.34791,2.06993.53125,3.0625-1.0958.24537-2.18029.51997-3.28125.75-36.76497,7.64453-75.53711,5.98254-111.75-4.875l-1.1875,3.8125c36.94175,10.79064 76.29595,12.17608 113.53125,4.15625 1.1077-.24046 2.21079-.49457 3.3125-.75 .0525.24402.10534.5201.15625.75-.41791.0269-.85964.0698-1.3125.21875-1.70113.5595-3.13315,1.887-3.875,3.375-37.01224,7.8403-76.10935,6.5591-113-3.9375l-1.21875,3.84375c37.32639,10.35904 76.70234,11.41021 113.9375,3.40625 .6304,1.52011 2.41147,2.21816 4.5,1.53125 1.75124-.57598 3.21716-1.95813 3.9375-3.5 22.00757-5.61389 42.55873-13.91296 62.4375-22.34375 9.01809-3.79707 17.91525-7.63871 26.8125-11.28125l.4375,1.28125 2.375-.8125-.46875-1.40625c11.54412-4.68178 23.08939-9.0152 34.8125-12.5 17.69947-5.22361 35.92769-8.71952 54.0625-8.5l-.0313.78125 1.6875.03125 .0313-.75c3.34379.08298 6.66954.27357 10,.625 14.46066,1.53723 28.92081,5.73899 41.59375,12.90625l-.375.59375 1.03125.65625 .40625-.65625c6.08629,3.55047 11.74804,7.79241 16.78125,12.78125 1.77432,1.73675 3.44736,3.56704 5.09375,5.46875l-.5625.5625 .71875.71875 .5-.5c6.24432,7.34337 11.78341,15.67612 17.9375,23.625 .74091.96682 1.51201,1.91924 2.28125,2.875l-.71875.71875 .5625.59375 .6875-.65625c5.6357,6.91574 12.06184,13.39976 19.5625,18.12501l-.1875.375 .5.25 .15625-.34375c2.15099,1.32611 4.38293,2.52737 6.71875,3.53125 2.42841,1.03675 4.91814,1.85824 7.46875,2.46875 4.13241.98913 8.3874,1.41426 12.59375,1.28125 3.07691-.0973 6.11868-.48788 9.09375-1.1875 .48155-.11323.96057-.24617 1.4375-.375l.0313.15625 .21875-.0313-.0313-.1875c4.24742-1.17022 8.31888-2.95815 12.03125-5.25l.0313.0625 .0625-.0625-.0313-.0313c4.04022-2.5026 7.67807-5.58305 10.71875-9.15625-.39832.44643-.80227.8824-1.21875,1.3125-.41012.43698-.82199.8606-1.25,1.28125h-.0313c-2.49437,2.44902-5.27223,4.63661-8.28125,6.46875l-.0313-.0937c3.01361-1.80554 5.80304-3.9468 8.3125-6.375v-.0313c-2.52638,2.40673-5.3551,4.53477-8.375,6.3125l-.0625-.0937c3.03342-1.75218 5.85759-3.85972 8.40625-6.25-2.56608,2.36919-5.42843,4.43175-8.46875,6.15625l-.0625-.0937c1.06958-.59525 2.137-1.22722 3.15625-1.90625 .0315.005.0953-.0125.125-.0313s.0238-.0643.0313-.0937l.0625-.0313c2.30117-1.55277 4.45905-3.30048 6.4375-5.25 .42284-.42323.84479-.84115 1.25-1.28125-2.36556,2.41315-5.01556,4.5315-7.84375,6.34375-.0294-.0392-.0293-.05-.0625-.0937-.0461-.0608-.0886-.10049-.125-.15625s-.0595-.11168-.0625-.125l-.0313-.0625h-.0625l-.59375.21875c-.0352.0155-.0618.0585-.0625.0937s.0146.0619.0313.0937c.0331.0636.0962.12082.15625.1875s.0766.10156.125.15625c-.0506.0319-.0486.10756-.0313.15625-.86949.53436-1.75483,1.02594-2.65625,1.5l-.0313-.0313-.0937.0625v.0313c-.19465.10161-.39775.1825-.59375.28125l-.3125-.3125c-.0832-.0807-.18253-.17466-.25-.25s-.11739-.13695-.125-.15625l-.0313-.0937-.0625.0625-.84375.4375h-.0313c-.0493.0314-.0696.1032-.0625.15625s.0303.0811.0625.125c.0645.0879.17561.195.28125.28125s.1341.13028.21875.1875c-.0498.0433-.0678.10022-.0625.15625-2.30256,1.07536-4.69139,1.95646-7.125,2.625-.0346-.1537-.0732-.30159-.0937-.4375s-.006-.25364 0-.28125v-.125h-.0937l-1.3125-.125c-.0794-.001-.1561.0281-.1875.0937s-.0352.14479-.0313.21875c.008.14792.0378.32328.0937.5 .0655.20707.0969.27577.15625.40625h-.0313c-.10884.0149-.19566.0966-.21875.1875-.427.099-.85201.19528-1.28125.28125v-.0313l-.21875.0625c-.45037.0878-.8914.1768-1.34375.25-.15464.0251-.31389.0391-.46875.0625-.002-.0629-.006-.13146 0-.1875 .0137-.13075.0506-.25708.0625-.28125l.0625-.0937-.125-.0313-1.15625-.4375c-.0733-.0201-.17387.009-.21875.0625s-.0483.1181-.0625.1875c-.0284.1388-.0403.32297-.0313.5 .0104.20072.0396.26708.0625.40625-.0234-.01-.0362-.0281-.0625-.0313-.0953-.0114-.17154.0584-.21875.125-.55281.0615-1.10195.1473-1.65625.1875-.005-.014.005-.0172 0-.0313-.0605-.16956-.11409-.3487-.15625-.5s-.0652-.28041-.0625-.3125v-.15625l-.125.0313-1.46875.0313h-.0313c-.0902.01-.16094.0775-.1875.15625s-.0147.13541 0,.21875c.0294.16669.0997.36978.1875.5625l.0313.0625c-1.01343.0311-2.0509.0384-3.0625,0-1.34506-.051-2.66832-.17222-4-.34375 .0468-.25971.11866-.53276.1875-.71875 .0344-.093.0598-.14293.0937-.1875s.0508-.0631.0625-.0625v-.15625c-.0862-.004-.13661.0269-.1875.0937s-.0873.1795-.125.28125c-.0753.2035-.13985.45407-.1875.71875-1.33041-.1762-2.66374-.39356-3.96875-.6875l.0313-.1875c.0516-.30733.0924-.64196.15625-.90625s.15638-.48499.1875-.53125l.125-.1875-.21875-.125-2.25-1.1875h-.0313c-.14464-.0614-.33092-.0342-.4375.0625s-.17065.20537-.21875.34375c-.0962.27675-.12644.63458-.15625,1-.0253.3101-.0287.61278-.0313.875-.0333-.016-.0567-.053-.0937-.0625-.11026-.0284-.21809-.003-.3125.0313-.28004-.086-.56575-.15849-.84375-.25l-.90625-.3125c.004-.20504.0167-.41952.0313-.59375 .0256-.3024.0985-.53744.125-.59375l.0937-.25-.25-.0937-2.6875-.9375h-.0313c-.16998-.0431-.36757.0315-.46875.15625s-.12666.27668-.15625.4375c-.0279.15149-.0575.32221-.0625.5-.6244-.28279-1.23538-.56275-1.84375-.875-.73964-.37191-1.47339-.77437-2.1875-1.1875 .20573-.30314.42909-.62476.625-.875 .20386-.2604.41099-.46446.46875-.5l.21875-.15625-.15625-.21875-1.90625-2.46875-.0313-.0313c-.12922-.14079-.33331-.17833-.5-.125s-.31454.1523-.4375.28125c-.24593.25791-.47041.64174-.6875,1.03125-.18009.32313-.33718.62523-.46875.90626l-.0625-.0625c-.19483-.15727-.4632-.18427-.65625-.0937-.007-.005-.0245.005-.0313,0-.21166-.15059-.41558-.31469-.625-.46875l.15625-.3125-.5-.21875-.0937.1875c-.43826-.32995-.88385-.65546-1.3125-1 .1857-.36939.37891-.75403.5625-1.0625 .19426-.32639.37688-.57609.4375-.625l.28125-.21875-.25-.21875-2.53125-2.53125v-.0313c-.16775-.14154-.44288-.17887-.625-.0937s-.31622.24141-.4375.40625c-.24256.32969-.46575.77459-.65625,1.25-.0318.0794-.0635.13908-.0937.21875-.33896-.31803-.6669-.6424-1-.96875 .0376-.19403.12546-.70213.3125-1.4375 .1099-.43208.22145-.88073.34375-1.25s.29391-.65647.34375-.71875l.1875-.28125-.28125-.15625-3.09375-2c-.19898-.10456-.49287-.0941-.65625.0313s-.25882.30839-.34375.5c-.16987.38322-.28933.88877-.375,1.40625-.009.0567-.0226.0993-.0313.15625-1.28621-1.44973-2.50959-2.95685-3.71875-4.5 .0587-.22143.0901-.39727.15625-.625 .19219-.66179.42678-1.31696.65625-1.78125 .11473-.23215.21217-.42473.3125-.53125s.15738-.12975.1875-.125l.0937-.40625c-.22255-.0351-.44338.0904-.59375.25s-.28071.371-.40625.625c-.25107.50801-.46039,1.16932-.65625,1.84375-.0361.12429-.0599.22019-.0937.34375-1.26955-1.63618-2.48605-3.32949-3.6875-5.03125l.34375-.3125-.59375-.59375-.21875.21875c-.50194-.71813-1.00761-1.43194-1.5-2.15625-.66762-1.0013-1.34214-2.01271-2-3.03125l.21875-.125-.28125-.34375-1.21875-1.53125c-2.64301-4.14828-5.26898-8.40195-8.0625-12.625 .21876-.24342.43121-.42403.5-.46875l.46875-.3125-.34375-.46875-3.96875-4.90625h-.0313v-.0313c-.26089-.27046-.72954-.35245-1.0625-.25-.004-.005-.0277.005-.0313,0-.43962-.60489-.86065-1.21206-1.3125-1.8125l.28125-.28125-.71875-.71875-.1875.1875c-.69024-.90182-1.40226-1.79892-2.125-2.6875 .45756-.38582.93131-.78657 1.34375-1.09375 .49724-.37034.9405-.62049 1.0625-.65625l.53125-.15625-.21875-.5-2.21875-5.40625v-.03125c-.16421-.31842-.57844-.54542-.90625-.53125s-.58895.13997-.875.3125c-.5721.34506-1.1651.90268-1.75,1.5-.49016.50056-.92668.98948-1.3125,1.4375-.0313-.06243-.0516-.12916-.0937-.1875-.16346-.22642-.39153-.36474-.625-.4375-1.37204-1.41626-2.7955-2.76861-4.25-4.09375 .21069-.03576.41228-.1371.59375-.21875l.25-.125-.28125.03125c-.18622.004-.33771-.0248-.5-.0625-.16064-.0494-.30739-.08088-.34375-.15625-.0229-.0247-.0567-.07871-.0625-.125-.0118-.0723.0291-.14129.0625-.25 .0237-.0625.0485-.14765.0625-.21875 .0195-.11302.0147-.21589 0-.34375-.0239-.16771-.10932-.33942-.21875-.46875-.10852-.12232-.21833-.19271-.34375-.25s-.27572-.12985-.40625-.15625c-.24993-.0512-.47927-.0684-.71875-.0625-.0823.002-.16745.02475-.25.03125-.14268-.0011-.25759.04926-.375.125-2.68442-2.2799-5.49711-4.38816-8.40625-6.375l.21875-.34375-1.03125-.65625-.1875.3125c-1.47172-.98007-2.97959-1.90638-4.5-2.8125 .17645-.32052.36112-.65165.53125-.9375 .48595-.81646.97337-1.47141 1.125-1.59375l.65625-.53125-.59375-.59375-6.3125-6.34375-.0313-.03125h-.0313c-.41961-.35408-1.07567-.43155-1.53125-.21875s-.79037.55639-1.09375.96875c-.60675.82471-1.11721,1.96702-1.59375,3.15625-.15517.38722-.29754.77128-.4375,1.15625-2.75978-1.3064-5.57887-2.50732-8.4375-3.59375l.5-.625-.6875-.46875-7.75-4.96875h-.0313l-.0313-.03125c-.49776-.26156-1.18505-.15706-1.59375.15625s-.63129.73943-.84375,1.21875c-.15754.35541-.28676.76511-.40625,1.1875-4.08497-1.12501-8.20951-2.0492-12.375-2.75-.87108-.1475-1.75259-.27498-2.625-.40625 .00021-.24333-.004-.47316 0-.71875 .0227-1.28134.0954-2.55498.28125-3.5 .0929-.47251.21554-.85374.34375-1.09375s.22489-.30636.28125-.3125c.0911-.0306.18709-.06825.28125-.09375 .27746-.0737.54881-.11538.8125-.125 .13636-.004.26286.0084.375.03125 .1012.0229.19542.05235.25.09375 .0512.0322.0987.06471.125.125 .0455.0871.0662.22208.0625.375-.0204.22719-.0274.4869.0625.75 .0508.14128.14644.2907.25.40625 .0584.0399.1242.06534.1875.09375 .41115.15385.74971.0627 1.03125-.0625 .28202-.12459.49838-.28771.71875-.46875 .10698-.0938.21116-.18943.3125-.28125l-.34375.125c-.24439.0717-.49114.11647-.71875.125-.22969-.008-.42502-.0069-.5-.09375-.039-.0244-.0696-.06602-.0937-.125-.0414-.0912-.0364-.21957-.0313-.375 .009-.091.007-.21366 0-.3125-.0147-.15613-.0592-.30543-.125-.46875-.0916-.21279-.24682-.39972-.4375-.53125-.18701-.12257-.37647-.18804-.5625-.21875-.19955-.0349-.38079-.04315-.5625-.03125-.34816.0219-.68604.09395-1,.1875l-.3125.09375-.0625.03125c-.30023.11321-.53217.36546-.6875.65625-.19216.35974-.33585.82676-.4375,1.34375-.2033,1.03399-.28931,2.35043-.3125,3.65625-.004.20336.00081.39202 0,.59375-2.72384-.3942-5.45471-.69448-8.1875-.9375l.0313-.625-1.6875-.0625v.53125c-2.72591-.2129-5.45904-.33285-8.1875-.40625-.0503-.25115-.0751-.42779-.125-.6875-.23047-1.19852-.47182-2.46345-.59375-3.53125s-.0933-1.99987-.0313-2.25l.46875-1.9375zm-293.5625,74 1.1875-3.8125-1.21875,3.8125h.0313zm4.78125-15.25 1.21875-3.8125h-.0313l-1.1875,3.8125zm286.625-55.59375c.0196.41416-.0552.73501 0,1.21875 .1303,1.14112.3583,2.43159.59375,3.65625 .0228.11857.0395.19543.0625.3125-3.00726-.04883-5.99774-.04435-9,.0625 .00051-.0093-.00058-.02203 0-.03125 .0242-.38719.0907-.67458.15625-.78125s.0548-.07925.1875-.09375l.15625-.03125 .15625-.0625 7.6875-4.25zm1.03125,6.90625c.061.28372.13262.62836.1875.875-.56207.14315-1.03747.47419-1.375.875-2.5462.0095-5.11349.06369-7.65625.1875-.0444-.16938-.084-.32985-.125-.5-.10554-.43767-.1499-.86471-.21875-1.28125 3.06388-.1305 6.11879-.19032 9.1875-.15625zm1.78125.0625c2.58078.05669 5.17165.16018 7.75.34375l-.0313,1.65625c-2.33523-.15071-4.66257-.23655-7-.28125-.10263-.23541-.2671-.43586-.46875-.59375-.0756-.33332-.14354-.63254-.25-1.125zm-12.78125.21875c.0792.5193.18575,1.03686.3125,1.5625 .0181.07505.0438.1439.0625.21875-5.45742.32079-10.87463.87431-16.28125,1.65625-.10503-.09004-.22106-.18345-.34375-.25-.19426-.49249-.38718-.94381-.625-1.59375 5.59326-.78468 11.22437-1.29607 16.875-1.59375zm22.21875.28125c2.74052.22592 5.48721.49442 8.21875.875 .009.33579.0193.64006.0313.9375-.13714-.04998-.28587-.07736-.4375-.09375-.5795-.06262-1.11921.14719-1.5.53125-2.11125-.2538-4.22751-.46436-6.34375-.625l.0313-1.625zm9.0625,1c.79197.11518 1.58412.21496 2.375.34375 4.12554.66826 8.2312,1.56941 12.28125,2.65625-.0573.29458-.13736.57213-.1875.875-.0334.2019-.0638.39192-.0937.59375-4.03613-1.05643-8.11126-1.92346-12.21875-2.5625-.66371-.10368-1.33553-.18733-2-.28125-.024-.04186-.0666-.08522-.0937-.125-.0245-.45623-.0445-.87177-.0625-1.5zm17.15625.40625 5.625,3.59375c-2.09733-.73285-4.20923-1.41472-6.34375-2.03125 .10258-.38022.19431-.73336.3125-1 .15251-.34406.34337-.50841.40625-.5625zm-66.375.0625c.15715.43844.29444.84008.4375,1.21875-.2239.01695-.4558.04456-.6875.125-.50607.1757-.94158.49129-1.28125.875-6.09092.98595-12.13579,2.24166-18.09375,3.6875-2.17453.52483-4.3428,1.05382-6.5,1.625-.0374-.67641-.0618-1.32924-.0313-1.90625 .005-.10322.0236-.18267.0313-.28125 1.98656-.50687 3.96691-1.00041 5.96875-1.46875 6.62204-1.56106 13.36906-2.88789 20.15625-3.875zm27.3125,1.46875c.27673.86379 1.28747,1.33948 2.375,1.0625 .6499-.16552 1.19583-.57073 1.53125-1.0625 2.38149.02475 4.77702.08233 7.15625.21875l-.0313,1.65625c-5.69863-.28711-11.39529-.21035-17.09375.125-.0267-.02623-.0339-.06933-.0625-.09375-.15779-.42438-.29529-.85083-.5625-1.6875 2.22795-.12031 4.45703-.18738 6.6875-.21875zm-50.0625.28125c.0895.009.19388.05997.25.125 .0743.07087.0966.21753.125.375-.93425.21749-1.88171.43054-2.8125.65625 .0556-.03954.0998-.08619.15625-.125 .42632-.29091.86191-.55669 1.28125-.75 .21697-.0992.40908-.17371.59375-.21875 .16716-.0376.30928-.0822.40625-.0625zm41.5625.0625c.13623.4399.27933.84852.40625,1.21875-.44154.12441-.8197.36225-1.125.65625-5.71246.44111-11.40499,1.14238-17.0625,2.09375 .90299-.45289 1.54492-1.32812 1.65625-2.25 5.34456-.80413 10.73332-1.37123 16.125-1.71875zm21.25,0c1.95632.13485 3.92284.28432 5.875.5 .10719.82365.76273,1.50056 1.625,1.59375 .82826.08951 1.59889-.3946 1.90625-1.125 .56195.07679 1.12609.13485 1.6875.21875 4.11978.61397 8.19858,1.43239 12.25,2.46875-.0382.33265-.0645.63648-.0937.9375-.0975-.05292-.20448-.08744-.3125-.125-.6239-.21696-1.27318-.12517-1.71875.21875-3.42948-.79554-6.87218-1.44341-10.34375-1.9375-3.61682-.51549-7.27237-.86799-10.90625-1.09375l.0313-1.65625zm25.25,1.125c2.60451.73327 5.17005,1.56117 7.71875,2.46875-.0834.19488-.16907.38063-.25.625l-.21875.6875c-2.45985-.85486-4.95797-1.65208-7.46875-2.34375 .0351-.2414.0539-.47826.0937-.71875 .0411-.24821.0794-.4765.125-.71875zm21.875,1.375 5.8125,5.84375c-.3242.39556-.62593.73652-.96875,1.3125-.17726.29782-.34984.63799-.53125.96875-2.18437-1.26153-4.41816-2.45136-6.6875-3.5625 .14815-.41348.30286-.83603.46875-1.25 .45452-1.13428.98578-2.22976 1.4375-2.84375 .21175-.28781.39213-.42434.46875-.46875zm-89.4375.03125c.007.05051.0211.10611.0313.15625 .17045.84102.79801,1.40854 1.59375,1.5625-6.03536,1.0641-12.0247,2.38699-17.9375,3.90625-2.35304.60373-4.69676,1.24585-7.03125,1.90625-.0724-.41759-.15527-.82217-.21875-1.25-.0444-.29898-.0873-.60742-.125-.90625 2.26751-.62123 4.5579-1.21231 6.84375-1.78125 5.55704-1.38783 11.17305-2.60374 16.84375-3.59375zm35.6875.53125c1.62127.01547 3.2238.05556 4.84375.125l-.0313,1.6875c-18.72779-.66302-37.59465,2.40114-55.78125,7.34375-2.28888.62345-4.57073,1.25767-6.84375,1.9375-.14424-.17252-.29753-.32749-.5-.4375-.10612-.46175-.22585-.96393-.34375-1.53125 2.38195-.69498 4.7872-1.36535 7.1875-2 11.61963-3.07092 23.49645-5.39326 35.46875-6.46875 .21895.94024 1.26928,1.44582 2.40625,1.15625 .82837-.21097 1.47966-.7879 1.75-1.46875 3.94066-.25788 7.90034-.38139 11.84375-.34375zm6.53125.21875c3.5833.19648 7.18306.51685 10.75,1 3.35496.45447 6.68099,1.07496 10,1.8125 .072.69796.56273,1.36427 1.3125,1.625 .87346.30375 1.76094-.05793 2.125-.78125h.0937c2.42086.61609 4.84245,1.29142 7.21875,2.0625-.0539.2306-.10878.47823-.15625.6875-.13553-.08731-.27872-.16353-.4375-.21875-.67098-.23334-1.33433-.09485-1.78125.3125-6.09751-1.80801-12.32047-3.13179-18.59375-3.9375-3.50622-.44957-7.04071-.73857-10.5625-.90625l.0313-1.65625zm-67.34375.5625c-.0325.6941-.0172,1.44258.0313,2.21875-9.71699,2.61346-19.24836,5.67193-28.6875,8.90625l-.75-2.25c9.65536-3.22565 19.4342-6.28863 29.40625-8.875zm92.28125.21875c2.43711.65712 4.86009,1.37546 7.25,2.1875-.11108.39493-.21209.7927-.3125,1.1875-.0176.06925-.0139.11868-.0313.1875-2.33188-.7747-4.68652-1.46743-7.0625-2.09375 .0391-.45023.0905-.88741.15625-1.46875zm9.53125.03125c2.91684,1.08045 5.77852,2.28275 8.59375,3.59375-.0392.1178-.0883.23105-.125.34375-.0808-.06972-.15634-.12985-.25-.1875-.73345-.45143-1.61227-.35461-2.125.1875-2.15525-.93464-4.32-1.79262-6.53125-2.59375 .0749-.25183.14227-.51907.21875-.75 .0741-.22379.14323-.39507.21875-.59375zm-41.0625,2.375c1.61863-.01042 3.22645.01732 4.84375.0625l-.0625,1.65625c-18.32591-.3647-36.76967,2.96591-54.625,8.09375-11.815,3.41222-23.43729,7.65641-35.03125,12.25l-.75-2.25c7.49779-2.9017 15.01301-5.66505 22.59375-8.15625 .4629.87265 1.59676,1.23291 2.875.8125 1.26604-.4164 2.30122-1.45722 2.6875-2.59375 2.35586-.72724 4.72189-1.42842 7.09375-2.09375 16.4565-4.59802 33.44269-7.6722 50.375-7.78125zm6.5.125c3.47125.13881 6.91863.39488 10.375.8125 6.16807.7478 12.33531,1.96404 18.34375,3.6875 .072.69796.56273,1.36427 1.3125,1.625 .55392.19263 1.13112.10139 1.5625-.15625l.71875.25 .125-.5625c7.11549,2.31136 13.96428,5.34813 20.375,9.125l-.625,1c-12.77675-7.37904-27.38183-11.76948-42.03125-13.4375-3.39588-.38462-6.7775-.60816-10.1875-.71875l.0313-1.625zm33.75.1875c2.18913.77696 4.36523,1.62234 6.5,2.53125 .0657.55569.40348,1.10882.9375,1.4375 .69422.42729 1.51039.34296 2.03125-.125 2.26901,1.04617 4.50146,2.17463 6.6875,3.375l-.28125.59375c-.11487-.11857-.22814-.22211-.375-.3125-.55719-.34295-1.21834-.37031-1.71875-.125-4.55294-2.34146-9.27268-4.34603-14.125-6.03125 .0288-.11519.0329-.19606.0625-.3125 .0873-.34326.1903-.68757.28125-1.03125zm-100.75,1.46875c.0322.24836.057.50243.0937.75 .0707.47648.16889.91298.25,1.375-9.3611,2.68727-18.60185,5.79999-27.75,9.09375l-.75-2.25c9.27776-3.25923 18.63448-6.3208 28.15625-8.96875zm111.53125.09375c2.20024,1.06129 4.37931,2.1709 6.5,3.375l-.4375.84375-.15625.3125c-2.06764-1.15433-4.16973-2.26375-6.3125-3.28125 .11601-.39249.21114-.65266.40625-1.25zm-11.46875,1.15625c4.69122,1.59361 9.24143,3.5058 13.65625,5.71875-.12067.59478.11275,1.23363.59375,1.6875-4.68347-2.37434-9.56154-4.36867-14.5625-6.03125 .0852-.3824.18757-.84364.3125-1.375zm19.25,3c1.49599.87744 2.98842,1.76901 4.4375,2.71875l-.65625,1.03125c-1.42963-.92218-2.86874-1.80505-4.34375-2.65625l.1875-.375c.12235-.2432.2494-.47619.375-.71875zm-118.59375.03125h.0313c.0689.32803.12173.67447.1875.96875-.26359.01901-.55896.03133-.84375.125-1.07495.35354-1.97906,1.19011-2.46875,2.125-7.90617,2.50823-15.73587,5.30395-23.53125,8.25l-.75-2.25c9.04465-3.33703 18.14661-6.48694 27.375-9.21875zm-32.75.96875 .75,2.28125c-6.51643,2.25762-12.97179,4.57111-19.40625,6.90625-.10698-.60073-.22049-1.19233-.3125-1.8125-.0373-.25154-.0606-.49811-.0937-.75 6.31701-2.23842 12.64922-4.45827 19.0625-6.625zm150.21875,1.21875c1.43759.8161 2.8553,1.67829 4.25,2.5625l-.65625,1c-1.35233-.84235-2.73261-1.65974-4.125-2.4375 .14397-.30246.34605-.74346.53125-1.125zm6.5625,1.15625c2.8834,1.93874 5.6802,4.0203 8.34375,6.25-.0366.06567-.0899.11638-.125.1875-.1296.26222-.22594.59011-.34375.90625-2.71113-2.25293-5.56048-4.36544-8.5-6.3125l.625-1.03125zm-7.625,1.125c1.34946.74143 2.68799,1.50974 4,2.3125l-.625,1.03125c-1.69799-1.02055-3.42817-1.98926-5.1875-2.90625 .28341.05123.55515-.01112.8125-.09375l.65625.40625 .34375-.75zm6.34375.9375c3.03462,1.97623 5.95841,4.10053 8.75,6.40625-.0516.16888-.10689.33002-.15625.5-.0726.24994-.12137.4416-.1875.6875-2.88843-2.37595-5.91226-4.57687-9.0625-6.59375l.65625-1zm-154,.125 .78125,2.28125c-6.48459,2.35961-12.93642,4.803-19.375,7.25-.17985-.25263-.41586-.46646-.6875-.625-.12452-.53319-.23545-1.06155-.375-1.71875 6.52426-2.42371 13.0664-4.84721 19.65625-7.1875zm152.71875,1.875c3.26303,2.05393 6.39296,4.30623 9.375,6.75l-.0937.40625c-.0942-.07005-.16661-.1427-.28125-.1875-.36792-.14377-.76574-.13149-1.09375.03125-2.7279-2.15073-5.60717-4.14129-8.5625-5.96875l.65625-1.03125zm-174.75.71875c.0218.15621.0394.31328.0625.46875 .10705.72153.25097,1.40382.375,2.09375-2.39581.8698-4.79907,1.73044-7.1875,2.59375-4.81723,1.73251-9.65638,3.43208-14.46875,5.09375-.0789-.5398-.16201-1.09689-.21875-1.59375-.0464-.40627-.0993-.78596-.125-1.15625 4.61366-1.5569 9.24449-3.1579 13.875-4.78125l7.6875-2.71875zm186.90625,1.0625h.0625c.20994.001.43705-.01245.625.03125 .0971.023.17523.05605.25.09375s.12566.08536.15625.125c.03.0325.0555.07742.0625.125 .0154.0702-.0311.17401-.0625.28125-.029.07822-.048.1589-.0625.25-.34165-.30296-.68544-.6082-1.03125-.90625zm-224.28125.0625 12.84375,4.46875c-4.05394,1.32013-8.08861,2.56795-12.125,3.78125-.16521-.58061-.3255-1.15591-.46875-1.75-.46639-1.93418-.73588-3.88319-.65625-5.15625 .0398-.63653.17348-1.07464.28125-1.25 .0497-.0809.0998-.07275.125-.09375zm210.8125.21875c2.93621,1.78197 5.78713,3.7078 8.5,5.8125-.1619.64738.17451,1.34444.8125,1.59375 .37024.14469.76449.10297 1.09375-.0625 2.29479,1.88739 4.50359,3.89717 6.59375,6.03125 1.7368,1.7634 3.39908,3.59732 5,5.5l-.71875.6875c-1.61762-1.89449-3.2825-3.75627-5.03125-5.5-5.05655-5.08776-10.74623-9.4142-16.875-13.0625l.625-1zm12.65625.5c2.06116,1.74671 4.06112,3.57724 5.96875,5.5-.26694.39567-.28461.93747.0313,1.375 .34353.47585.92137.61541 1.375.375l.25.1875 .0937-.125c.39526.42105.76866.85222 1.15625,1.28125 .63327.71059 1.2667,1.43305 1.875,2.15625-.31869.28196-.43014.3883-.65625.59375-.0399-.10321-.0573-.21869-.125-.3125-.18519-.25651-.45068-.41078-.71875-.46875-.005-.005-.0267.005-.0313,0-.36458-.41709-.72061-.83784-1.09375-1.25-2.68955-2.93955-5.56062-5.66726-8.59375-8.21875 .1361-.37895.29409-.74108.4375-1.03125l.0313-.0625zm-162.53125.125 .75,2.28125c-9.12456,3.48363-18.21404,7.14069-27.34375,10.75-5.16603,2.04717-10.33937,4.08826-15.5625,6.0625-.16477-.29815-.38633-.56938-.65625-.78125-.13005-.55436-.22347-.95508-.40625-1.78125 5.25648-1.94059 10.47322-3.95048 15.6875-5.96875 .36605-.1416.72775-.29572 1.09375-.4375 .67419.76761 1.8651,1.03896 3.21875.59375 1.5154-.49841 2.77566-1.73875 3.28125-3.09375 6.63409-2.5789 13.275-5.14128 19.9375-7.625zm161.71875,2.09375c2.88699,2.41747 5.61418,5.03626 8.1875,7.8125 .28514.30993.56348.62441.84375.9375-.25906.39522-.25031.97294.0625,1.40625 .21898.30333.52406.4459.84375.46875l.3125.4375 .40625-.40625 .0313-.0313c.77295.90887 1.5411,1.82059 2.28125,2.75l-.71875.71875c-1.53953-1.9077-3.12676-3.79135-4.8125-5.59375-2.44418-2.60212-5.05477-5.00608-7.78125-7.28125 .0851-.32826.1516-.59868.25-.9375 .0282-.09708.0647-.18438.0937-.28125zm-184.375,1.0625c.0602.28468.12966.58173.1875.84375-.32904.02234-.67517.07039-1.03125.1875-1.59602.52493-2.89791,1.87559-3.34375,3.3125l-1.625.625c-5.1094,1.9308-10.20929,3.83323-15.34375,5.6875-.0897-.44204-.16178-.8536-.25-1.3125-.0926-.48175-.16185-.97962-.25-1.46875 4.97348-1.75685 9.94193-3.5444 14.90625-5.375l6.75-2.5zm196.9375.1875 2.0625,4.96875c-.29412.15717-.58707.27026-.9375.53125-.43854.32662-.91271.726-1.375,1.125-.60929-.73529-1.20854-1.49492-1.84375-2.21875-.4203-.47104-.8519-.91324-1.28125-1.375 .3893-.4593.88722-1.0012 1.40625-1.53125 .55788-.56972 1.13657-1.08685 1.5625-1.34375 .19461-.11738.34517-.14668.40625-.15625zm-13.1875,1.15625c2.55527,2.12684 5.0077,4.39194 7.3125,6.8125 1.70637,1.794 3.31225,3.65189 4.875,5.5625l-.6875.6875c-1.58183-1.90697-3.24702-3.75203-4.96875-5.53125-2.11571-2.19123-4.32962-4.24643-6.65625-6.1875 .0644-.25495.0478-.51257-.0313-.75 .044-.20254.0964-.3357.15625-.59375zm-159.5625.0625 .75,2.28125c-8.97589,3.59101-17.94145,7.35755-27,11.09375-19.6537,8.15228-39.86479,16.14537-61.3125,21.53125-.24257-.53158-.62534-.96285-1.125-1.25-.11704-.50524-.21457-.99659-.34375-1.59375 13.91333-3.33765 27.34092-7.84424 40.5-12.78125 .61247.1833 1.3311.18627 2.0625,0 1.05646-.26906 1.91588-.8916 2.46875-1.6875 5.6516-2.17185 11.24662-4.39919 16.8125-6.65625 9.09701-3.67409 18.13456-7.39905 27.1875-10.9375zm-49.40625,1.875c.014.18383.009.36379.0313.5625 .0812.71109.20012,1.48396.3125,2.25-3.59461,1.225-7.18349,2.38805-10.78125,3.53125-.0541-.0685-.12645-.12475-.1875-.1875-.19359-.49772-.42315-1.12623-.875-2.46875 3.83401-1.18447 7.65994-2.40814 11.5-3.6875zm-14.21875,4.53125c.0926.27675.19369.59183.28125.84375-1.57163.41128-2.77099,1.65933-3.03125,3-4.76941,1.42925-9.55607,2.77488-14.34375,3.96875 .0392-.0328.0869-.0607.125-.0937 .65162-.56255 1.17737-1.16371 1.65625-1.78125 .23034-.31232.47038-.60404.6875-.90625l-.84375.625c-.57785.4103-1.1595.77292-1.71875,1.03125-.57023.2261-1.06468.44858-1.28125.34375-.10515-.0107-.19986-.0876-.28125-.1875-.1353-.15022-.20646-.44526-.25-.78125-.0111-.20291-.0407-.39093-.0937-.59375-.0273-.0928-.0563-.19049-.0937-.28125 6.39267-1.50538 12.79641-3.25906 19.1875-5.1875zm236,.40625c.74455.90193 1.47609,1.80111 2.1875,2.71875l-.71875.6875c-.72911-.92803-1.48755-1.8402-2.25-2.75 .21446-.19674.50962-.41543.78125-.65625zm-221,.625c.062.34487.12224.6918.1875,1.03125 .11798.61368.2555,1.16866.375,1.75-13.96917,4.97824-28.07692,9.46085-42.46875,12.59375-.10168-1.10748-.18063-2.16422-.1875-3.15625 8.56256-1.81053 17.05848-4.11224 25.5-6.71875 .74325.47582 1.74676.64642 2.8125.375 1.23448-.3144 2.24175-1.14056 2.75-2.125 3.6911-1.19687 7.35245-2.46781 11.03125-3.75zm223.8125,2.90625c.41915.54991.84091,1.10197 1.25,1.65625l-.0625.0625c-.19692.21706-.37828.46986-.5625.75-.44419-.59539-.88834-1.19161-1.34375-1.78125l.71875-.6875zm-1.40625,1.375c.51496.65788.99854,1.33406 1.5,2-.0811.14732-.17063.28639-.25.4375-.0838.15948-.17023.30809-.25.46875-.56596-.74475-1.13663-1.48518-1.71875-2.21875l.71875-.6875zm-259.46875.59375c.10709-.0126.17507-.0152.25,0 .13826.0143.28829.087.375.1875 .14392.1373.20359.42095.25.75 .0318.50473.18141,1.03586.5,1.5 .0715.1.15778.19808.25.28125-2.1331.50246-4.26773.96345-6.40625,1.40625 .0627-.32321.12907-.62303.21875-.875 .23914-.67192.55541-1.00361.84375-1.15625l-.0625-.125c.17505-.12951.35017-.2817.53125-.40625 .65879-.44954 1.28951-.82629 1.9375-1.125 .33528-.15328.65213-.3054.9375-.375 .12915-.029.26791-.0498.375-.0625zm262.75.59375c1.17231,1.61397 2.29865,3.23814 3.40625,4.875-.0197.0253-.0425.0355-.0625.0625-.16017.2154-.33189.479-.5.71875-1.10863-1.61801-2.26922-3.2206-3.4375-4.8125 .2092-.33425.40789-.6229.59375-.84375zm-224.5625.0625 .0625.28125c-1.86675.5062-3.19448,2.16469-3.03125,3.78125-12.78689,4.66212-25.80047,8.86145-39.1875,11.96875-.17873-.96578-.34924-1.95263-.5-2.96875-.005-.0306.004-.0632 0-.0937 14.52993-3.26471 28.69021-7.88219 42.65625-12.96875zm219.875.125c.66447.82627 1.29259,1.68934 1.9375,2.53125-.0679.15033-.12665.29796-.1875.4375-.0511-.054-.0955-.10968-.15625-.15625-.26128-.20038-.55792-.29622-.84375-.28125-.48218-.61348-.94502-1.23978-1.4375-1.84375l.6875-.6875zm-1.375,1.375c.43245.52305.85627,1.06278 1.28125,1.59375-.3658.52668-.21595,1.32075.34375,1.75 .35473.27205.79482.30833 1.15625.1875 .8223,1.063 1.63453,2.13397 2.4375,3.21875-.22268.51057-.0285,1.14988.46875,1.53125 .27985.21462.60299.31318.90625.28125 2.02109,2.78075 3.99671,5.61532 6,8.4375-.0553.0452-.11336.0945-.15625.15625-.20585.29639-.16623.68206.0313,1 .0658.10598.14501.20073.25.28125 .30593.23462.67786.24629.96875.0937 .58678.82164 1.15653,1.6512 1.75,2.46875-.17415.38459-.064.86749.3125,1.15625 .20998.16104.45996.24271.6875.21875 .004.005.0276-.005.0313,0 .42832.58253.84739,1.17152 1.28125,1.75 .68402.91564 1.38656,1.81302 2.09375,2.71875l-.5.53125c-.74218-.93592-1.47127-1.86597-2.1875-2.8125-1.60564-2.10693-3.14063-4.26731-4.6875-6.40625-4.32798-5.98453-8.56883-11.96178-13.1875-17.46875l.71875-.6875zm4.96875.15625c1.15954,1.56478 2.26953,3.15637 3.375,4.75l-.25.375c-.10588.16569-.18119.27718-.28125.4375-1.08988-1.55186-2.17524-3.10374-3.3125-4.625 .14046-.29709.28118-.60864.4375-.90625l.0313-.0313zm4.4375,1.40625 .78125.96875-.0937.0937c-.23337-.34952-.45146-.71356-.6875-1.0625zm-5.375.53125c1.1078,1.46937 2.21394,2.93657 3.28125,4.4375-.0181.0301-.0449.0644-.0625.0937-.0694-.0859-.1274-.17994-.21875-.25-.34057-.26119-.74162-.28902-1.09375-.1875-.75868-1.04071-1.53494-2.07078-2.3125-3.09375 .0761-.19652.16863-.44919.40625-1zm6.03125,2.125c2.11041,3.15002 4.14377,6.33286 6.15625,9.46875-.0284.006-.0674-.009-.0937,0-.23663.0823-.39288.25075-.5625.4375-1.98092-3.03507-3.9697-6.08704-6.03125-9.125 .17931-.26771.35846-.54184.53125-.78125zm-1.0625,1.59375c2.05266,2.9872 4.04398,6.00711 6.03125,9-.16274.24486-.31928.50415-.46875.78125-2.01666-2.98472-4.02581-5.99756-6.09375-8.96875 .16716-.27397.31079-.48516.5-.78125l.0313-.0313zm-1.03125,1.625c2.09348,2.96947 4.13102,5.97834 6.1875,8.96875-.11889.25119-.24708.49764-.34375.71875-.0369-.0384-.0503-.0917-.0937-.125-.0583-.0447-.1249-.0636-.1875-.0937-2.00562-2.86854-4.03431-5.72157-6.0625-8.5625 0,0-.00031-.0307 0-.0313 .0106-.019.20319-.37108.5-.875zm8.40625,7.03125 1.875,2.34375c.2455.37807.50377.74867.75,1.125-.15371.15415-.29634.29939-.46875.53125-.0207.0278-.0417.0652-.0625.0937-.8273-1.24105-1.6476-2.49377-2.46875-3.75l.0937-.125c.12026-.13256.23396-.19491.28125-.21875zm-.875,1.0625c.82847,1.24535 1.66343,2.48739 2.5,3.71875-.14831.22356-.29406.4318-.4375.65625-.008.0118.008.0194 0,.0313-.83139-1.20051-1.67844-2.3807-2.5-3.59375l.125-.25c.1028-.19571.20524-.38288.3125-.5625zm-.8125,1.625c.80904,1.1731 1.6172,2.338 2.4375,3.5-.0735.12196-.12782.18056-.1875.28125-.0555-.0721-.11196-.16081-.1875-.21875-.20052-.15378-.4375-.20264-.65625-.1875-.004-.005-.0277.005-.0313,0-.59892-.83887-1.18866-1.68744-1.78125-2.53125 .098-.23672.23136-.45997.40625-.84375zm4.75,1.4375c.64704.98368 1.28051,1.9692 1.9375,2.9375 .51994.75421 1.06269,1.5025 1.59375,2.25l-.5.5c-.56074-.77661-1.1396-1.52864-1.6875-2.3125-.61821-.89557-1.23486-1.81059-1.84375-2.71875 .0711-.10018.1502-.22032.21875-.3125 .0965-.12978.19145-.23676.28125-.34375zm-.9375,1.3125c.56564.82767 1.1134,1.68236 1.6875,2.5 .56988.80427 1.16573,1.57835 1.75,2.375l-.53125.53125c-.61654-.8273-1.24369-1.66446-1.84375-2.5-.51667-.72359-1.02177-1.4564-1.53125-2.1875 .0958-.15297.0852-.15235.1875-.3125 .0918-.14371.18723-.2641.28125-.40625zm-.90625,1.40625c.45697.6433.91202,1.29977 1.375,1.9375 .62614.86034 1.2929,1.71089 1.9375,2.5625l-.53125.53125c-.67714-.88067-1.34368-1.76622-2-2.65625-.4071-.55166-.81646-1.10062-1.21875-1.65625 .0328-.0551.28431-.46656.4375-.71875zm5.875,3.15625c1.29996,1.81058 2.61835,3.57837 4,5.3125-.0401.164-.0913.35378-.125.5-.0741-.0579-.15789-.12025-.25-.15625-.0843-.0329-.16414-.0221-.25-.0313-1.34864-1.6697-2.63632-3.38486-3.90625-5.125l.53125-.5zm-1.03125,1c1.20836,1.62928 2.43869,3.24441 3.71875,4.8125-.14402.107-.27363.22682-.34375.40625-.0267.0684-.0203.14903-.0313.21875-1.33869-1.60649-2.61525-3.26561-3.875-4.9375l.53125-.5zm-1.03125,1.03125c5.33194,6.9629 11.31946,13.49261 18.40625,18.31251l-.25.46875c-7.19034-4.79765-13.28023-11.32944-18.6875-18.28126l.53125-.5zm-1.03125,1c5.48323,6.93848 11.67474,13.47847 18.96875,18.25001l-.21875.4375c-7.3983-4.75174-13.72162-11.25771-19.28125-18.18751l.53125-.5zm7.40625,2.6875c1.24007,1.54159 2.52291,3.05543 3.84375,4.5-.007.0718-.025.1513-.0313.21875-.0314-.0157-.0598-.0194-.0937-.0313-.18372-.0639-.37456-.063-.53125,0-1.11677-1.20945-2.22231-2.44094-3.28125-3.71875 .0184-.17348.0367-.34476-.0313-.5 .0336-.14691.0818-.28951.125-.46875zm-.375,1.59375c1.04139,1.2295 2.09079,2.42867 3.1875,3.59375-.0299.32317.18638.66132.53125.78125 .0863.03.16581.031.25.0313h.0313c1.1556,1.19301 2.33839,2.36822 3.5625,3.46875-.15346.31581-.019.7022.3125.90625 .23482.14453.51453.14695.71875.0313 .56951.48988 1.16464.9397 1.75,1.40625-.0695.0499-.14344.1077-.1875.1875-.0537.0973-.0635.20406-.0625.3125-3.89254-3.039-7.43235-6.60715-10.71875-10.4375 .23147-.0135.45607-.12277.625-.28125zm5.4375.53125 2.84375,1.8125c-.0999.19098-.1916.35431-.28125.625-.12991.39225-.263.87214-.375,1.3125-.11991.47144-.12139.58958-.1875.90625-.0604-.0419-.11476-.0685-.1875-.0937-.0485-.0169-.10797-.024-.15625-.0313-.74627-.75558-1.46884-1.55083-2.1875-2.34375 .0278-.23438.0226-.44674.0625-.6875 .0817-.49357.18603-.96469.3125-1.25 .0632-.14265.13357-.23261.15625-.25zm-.625,3c.5471.58553 1.0936,1.15405 1.65625,1.71875-.0585.0652-.0985.12922-.125.21875-.0529.17906-.0299.3697.0625.53125-.6367-.61992-1.25776-1.26035-1.875-1.90625h.21875c0,0 .038-.25829.0625-.5625zm5.5,1.96875 2.34375,2.3125c-.13527.16104-.26397.32345-.40625.5625-.16866.28337-.33962.61079-.5.9375-.79934-.65772-1.57611-1.32682-2.34375-2.03125 .0586-.16501.0899-.30327.15625-.46875 .1817-.45344.38192-.87955.5625-1.125 .0829-.11262.15545-.16805.1875-.1875zm-3.65625.75c.0613.043.11339.0992.1875.125 .2104.0732.42501.028.59375-.0625l.1875.0625c.3596.34433.72749.69638 1.09375,1.03125-.0357.10546-.094.21611-.125.3125-.0317-.0272-.0571-.0712-.0937-.0937-.15181-.0934-.31429-.11232-.46875-.0937-.46287-.42165-.92248-.84512-1.375-1.28125zm2.5625,1.625c.75051.67123 1.53262,1.30966 2.3125,1.9375-.11753.23448-.16282.294-.25.46875-.76526-.60333-1.51227-1.2309-2.25-1.875 .0408-.14567.10232-.26198.1875-.53125zm60.5.96875c-1.62544,1.45423-3.34127,2.79648-5.15625,4-.005-.007-.019-.046-.0313-.0625 1.81881-1.18603 3.55373-2.49872 5.1875-3.9375zm-52.65625,1.125h.0313l1.75,2.28125c-.12984.1224-.26198.22197-.40625.40625-.2084.26621-.44564.59668-.65625.90625-.71296-.4239-1.40515-.88134-2.09375-1.34375 .14396-.30539.33493-.72311.59375-1.1875 .20706-.37151.41066-.71425.59375-.90626 .0829-.0869.15686-.14222.1875-.15625zm-5.0625.21875c.43578.34295.8671.67174 1.3125,1.00001l-.25.46875c-.44661-.32271-.87526-.6629-1.3125-1.00001 .0718-.15377.14218-.24549.25-.46875zm-.46875.96876c.42821.32288.87558.62807 1.3125.9375l-.21875.5c-.53033-.3678-1.04459-.76921-1.5625-1.15625l.25.15625 .15625-.3125 .0625-.125zm2.21875.34375c.20101.14486.39074.29575.59375.4375-.0326.21853.0559.43709.25.59375 .22419.18096.5179.20792.71875.0625 .71695.47558 1.445.94018 2.1875,1.375-.0828.12881-.12616.1833-.1875.28125-.0328-.0423-.0503-.0899-.0937-.125-.17432-.14072-.38074-.18336-.5625-.125-1.06599-.63595-2.10978-1.31456-3.125-2.03125l.21875-.46875zm50.375.90625c.0147.0306.0386.0572.0625.0937 .0386.0592.078.12553.125.1875 .0336.0444.0332.0547.0625.0937-.13876.0884-.26659.19435-.40625.28125h-.0313c-.0153-.014-.11128-.13076-.21875-.25-.0573-.0636-.10032-.10889-.125-.15625-.0123-.0237-9e-005-.0576 0-.0625l.53125-.1875zm-50.8125.0313c.97744.67611 1.97714,1.30294 3,1.90625-.075.22215.001.47449.1875.65625-1.17355-.66425-2.32146-1.33631-3.4375-2.09375l.25-.46875zm51,.46875c-.005.0206.0241.0425.0313.0625 .003.009-.005.0234 0,.0313-.13953.0914-.297.16018-.4375.25-.8881.56773-1.79466,1.12021-2.71875,1.625l-.0625-.0937c.90853-.48635 1.81252-.98386 2.6875-1.53125 .0315.005.064.0187.0937,0s.055-.0643.0625-.0937c.12019-.0759.22425-.17301.34375-.25zm-51.46875.4375c2.10317,1.39969 4.28791,2.6577 6.59375,3.71875 .75083.34737 1.51243.66387 2.28125.96875 .0484.23789.22735.44156.5.46875 .15945.0159.29678-.0401.40625-.125 .60844.22623 1.22618.4564 1.84375.65625 .068.21335.2479.38111.5.40625 .17033.017.32622-.0285.4375-.125l.9375.28125c4.03574,1.11655 8.2251,1.66209 12.40625,1.65625 2.99946-.004 6.00459-.27838 8.9375-.875 .46201-.0939.9163-.20392 1.375-.3125l.0625.21875c-.46217.11326-.94047.21412-1.40625.3125-2.94341.62236-5.94997.94128-8.96875.96875-4.19788.0382-8.39891-.50398-12.46875-1.59375-2.40128-.64298-4.7627-1.47155-7.03125-2.5-2.3083-1.04398-4.51386-2.27932-6.625-3.65625l.21875-.46875zm5.125.90625c.73166.4164 1.49246.8134 2.25,1.1875 .67974.3416 1.36398.66354 2.0625.96875 .002.0425-.003.0821 0,.125 .009.12446.0186.22126.0313.34375-.77752-.32743-1.5255-.65931-2.28125-1.03125-.77986-.37829-1.55915-.7966-2.3125-1.21875 .0729-.11697.13859-.20192.25-.375zm-5.5625.0313c2.12174,1.35719 4.34212,2.56492 6.65625,3.59375 2.32753,1.03413 4.72994,1.86681 7.1875,2.5 4.08507,1.05253 8.30591,1.53877 12.5,1.46875 3.03827-.0507 6.07718-.38311 9.03125-1.03125 .47577-.10431.9345-.22401 1.40625-.34375l.0313.21875c-.46541.12163-.93669.23706-1.40625.34375-2.96457.67388-6.0049,1.05099-9.0625,1.125-4.20074.10168-8.42186-.38528-12.53125-1.40625-2.50352-.62199-4.9664-1.43342-7.34375-2.46875-2.32845-1.01775-4.54815-2.21858-6.6875-3.5625l.21875-.4375zm47.1875.15625c.03.0463.0453.10218.0937.15625 .0717.08.16517.16779.25.25 .0932.0904.12122.10613.1875.15625l-.0625.0313c-.0605.0525-.0527.12262-.0313.1875l-.5.25c0,0-.23599-.14797-.4375-.3125-.10076-.0823-.20201-.18458-.25-.25-.024-.0327-.0303-.0551-.0313-.0625l.78125-.40625zm1.4375.40625 .0625.0625c-2.85696,1.55281-5.86241,2.8128-8.96875,3.71875-.0154-.0542-.01-.10534-.0313-.1875 2.44699-.69345 4.84849-1.58546 7.15625-2.6875 .0657.0264.1583.0213.21875-.0313 .0322-.028.0531-.0573.0625-.0937 .002-.009-.00089-.0221 0-.0313 .19615-.0954.39891-.18305.59375-.28125 .0657.0264.12705.0213.1875-.0313 .0322-.028.0531-.0573.0625-.0937 .002-.009-.00089-.0221 0-.0313 .2152-.11018.44274-.19888.65625-.3125zm.125.15625 .0625.125c-2.84977,1.60731-5.87786,2.88071-9,3.84375l-.125.0313c.006-.008-.005-.0226 0-.0313h.125l-.0313-.125c0,0 .00041-.0299 0-.0313 3.10814-.93406 6.12065-2.23532 8.96875-3.8125zm-43.6875.0313c.77061.4249 1.54634.83874 2.34375,1.21875 .8319.401 1.70589.7461 2.5625,1.09375 .005.0396-.005.0873 0,.125-.0326-.009-.0592-.0278-.0937-.0313-.17539-.0175-.32572.0542-.4375.15625-.7391-.30101-1.49733-.59684-2.21875-.9375-.97263-.45543-1.90954-.97958-2.84375-1.5 .0888.023.1649.0174.25,0l.21875.1875 .15625-.25 .0625-.0625zm43.8125.1875 .0625.0625c-3.74389,2.19355-7.77888,3.88043-12,4.9375l-.0625-.21875c4.19685-1.01629 8.2573-2.63153 12-4.78125zm-38.4375.0625 2.46875.875c-.035.15465-.0765.29491-.0937.5-.012.14159.004.31006 0,.46875-.83805-.30621-1.65387-.6434-2.46875-1-.00053-.25234.002-.49661.0313-.65625 .022-.11973.0485-.17018.0625-.1875zm38.5625.0937 .0625.0937c-3.72872,2.26274-7.78529,4.0238-12.03125,5.15625l-.0625-.21875c4.2341-1.09468 8.29447-2.8029 12.03125-5.03125zm-32.90625.59375 2.09375,1.125c-.0549.13519-.11137.25182-.15625.4375-.0679.28074-.1349.62429-.1875.9375-.014.0832-.0192.0765-.0313.15625-.66965-.15784-1.30848-.34283-1.96875-.53125 .005-.25548-.009-.53147.0313-1.03125 .0284-.34853.0534-.70021.125-.90625 .0358-.10302.079-.17408.0937-.1875zm-5.75.65625c.80236.33912 1.61426.64657 2.4375.9375-.00058.0532.00072.10417 0,.15625-.002.13189.00067.12685 0,.25-.79584-.27144-1.5973-.55894-2.375-.875-.0202-.15801-.0482-.30124-.0625-.46875zm27.78125.84375 1.1875.15625c.002.067-.0128.13454 0,.21875 .0219.14436.0585.3121.0937.46875-.33147.0892-.66687.19988-1,.28125-.0388-.0971-.10108-.28936-.1875-.5625-.0533-.16856-.0879-.32737-.0937-.4375-.003-.0551-.004-.11589 0-.125zm-27.65625.0937c.76779.3007 1.52835.58596 2.3125.84375 6e-005,.0113-7e-005,.0203 0,.0313-.0502-.0185-.1006-.0257-.15625-.0313-.22322-.0223-.42632.0592-.53125.21875-.51332-.17178-1.02465-.34106-1.53125-.53125 0,0 .00029-.0298 0-.0313-.005-.0234-.0472-.20335-.0937-.5zm2.78125.15625c.28159.0959.56005.19095.84375.28125 .20339.0647.42059.0944.625.15625-.0369.17765.0438.35005.1875.46875-.28235-.0809-.5632-.16364-.84375-.25-.26975-.083-.54452-.1619-.8125-.25 .00015-.18427-.003-.19095 0-.40625zm20.125.75 1.0625.40625c-.0193.0704-.0212.1226-.0313.21875-.008.0744-.0257.16341-.0313.25-.33164.0484-.6675.11563-1,.15625-.014-.11956-.0186-.25503-.0313-.5-.009-.16885-.0211-.33416 0-.4375 .0106-.0517.0249-.0865.0313-.0937zm-17.6875.0313h.125c.64472.1771 1.28449.35178 1.9375.5-.004.0361.004.0613 0,.0937-.0404-.0217-.0787-.0506-.125-.0625-.20853-.0537-.42032.01-.53125.15625-.57659-.13418-1.14846-.28085-1.71875-.4375 .13336-.0346.25675-.12789.3125-.25zm23.78125,0 .0313.125h-.0625c-.0836.0114-.15007.0633-.1875.125-.83446.23343-1.68577.44139-2.53125.625l-.0313-.1875c.43044-.0899.85329-.20955 1.28125-.3125 .0576.0679.11934.10737.21875.0937 .10907-.0149.19586-.0964.21875-.1875 .35361-.0889.71089-.18354 1.0625-.28125zm-26.21875.0625 .78125.25c.98282.29154 1.99851.52557 3,.75 .002.00051-.002.0307 0,.0313 .0504.17407.20814.32399.40625.375 .15849.0408.29211-.0123.40625-.0937l.21875.0625 .0313-.15625c1.15095.2291 2.30257.42247 3.46875.5625-.017.1593.0433.30613.1875.375-2.63615-.28223-5.23549-.79973-7.78125-1.53125l-.71875-.21875c-.00027-.0178.001-.29111 0-.40625zm17.5625.40625c.01.0863.00039.1707.0313.28125 .0393.14093.0987.31265.15625.46875-.43316.0289-.8477.0465-1.28125.0625-.0388-.077-.0562-.0738-.0937-.15625-.0838-.18382-.16564-.3759-.1875-.5-.0109-.062-.004-.11407 0-.125l1.375-.0313zm8.4375,0c.0408.0723.0979.11604.1875.125-.86299.25793-1.71712.48246-2.59375.6875l-.0625-.1875c.83091-.18744 1.64926-.38973 2.46875-.625zm-21.0625.125c1.31067.28379 2.63471.49016 3.96875.65625-.0185.12508-.0192.18965-.0313.28125-.0298-.0182-.0584-.0216-.0937-.0313-.10095-.0277-.19692-.0167-.28125.0313-1.21855-.15192-2.42465-.34405-3.625-.59375 .01-.063.0418-.21478.0625-.34375zm18.28125.125 .0313.21875c-.45196.0957-.8893.20012-1.34375.28125l-.5625.0937c.006-.0985-.004-.11655 0-.25l.5-.0937c.45617-.0776.9211-.15762 1.375-.25zm-2.09375.375c-.003.12804-.00096.15399 0,.25h-.0625c-.94864.15054-1.91911.25589-2.875.34375-.0183-.0457-.0587-.12798-.0937-.21875 .5264-.0433 1.06898-.12511 1.59375-.1875 .0407.0371.0965.0866.15625.0937 .10885.013.17825-.0403.21875-.125l1.0625-.15625zm2.1875.0625 .0625.1875c-.45731.10449-.91464.22273-1.375.3125-.22562.0441-.46121.0532-.6875.0937-.0938.0168-.18734.0463-.28125.0625-2.60384.44874-5.26185.67141-7.90625.65625-1.46378-.008-2.91838-.0707-4.375-.21875 .1358-.0275.24209-.13853.28125-.28125 .005-.0194-.002-.0431 0-.0625 1.36109.14146 2.72485.26261 4.09375.28125 1.02184.0139 2.04196-.0384 3.0625-.0937 .0746.0709.16896.12322.28125.0937 .0555-.0146.0885-.0579.125-.0937 .006-.006.0258.006.0313,0 .34349-.022.68835-.0638 1.03125-.0937 .0626.11539.20095.19373.34375.15625 .0914-.024.12159-.083.15625-.15625l.15625-.0313v-.0313c.83301-.0851 1.67306-.18011 2.5-.3125 .0273.0934.10943.17441.21875.1875 .0689.008.10811-.0267.15625-.0625h.0313 .0937v-.125c0,0-.001-.0803 0-.0937 .20889-.036.41664-.0547.625-.0937 .45829-.0856.91949-.18096 1.375-.28125zm-14.21875.125c1.33934.16106 2.68044.27233 4.03125.3125 1.06864.0318 2.1494.0139 3.21875-.0313 .0219.0387.0439.062.0625.0937-.0331-.002-.0601-.009-.0937,0-.0932.0245-.15356.11232-.1875.1875-.99393.0446-2.00588.0527-3,.0313-1.35972-.0294-2.71242-.13002-4.0625-.28125 .008-.0927.0144-.17383.0313-.3125zm8.75.1875 .0625.15625c-.0292-.00032-.0641-.008-.0937,0-.0802.0211-.11848.064-.15625.125-.3155.0251-.62159.0441-.9375.0625-.007-.0123-.0817-.17211-.125-.25 .41923-.0201.83134-.0617 1.25-.0937z" fill="url(#a)"/>
 </g>
</svg>
